<?xml version="1.0" standalone="no"?>
<!DOCTYPE svg PUBLIC "-//W3C//DTD SVG 20010904//EN"
 "http://www.w3.org/TR/2001/REC-SVG-20010904/DTD/svg10.dtd">
<svg version="1.0" xmlns="http://www.w3.org/2000/svg"
 width="2932.000000pt" height="2932.000000pt" viewBox="0 0 2932.000000 2932.000000"
 preserveAspectRatio="xMidYMid meet">
<metadata>
Created by potrace 1.11, written by Peter Selinger 2001-2013
</metadata>
<g transform="translate(0.000000,2932.000000) scale(0.100000,-0.100000)"
fill="#000000" stroke="none">
<path d="M0 14660 l0 -14660 14660 0 14660 0 0 14660 0 14660 -14660 0 -14660
0 0 -14660z m13154 7094 c3 -8 2 -12 -4 -9 -6 3 -10 10 -10 16 0 14 7 11 14
-7z m157 -275 c11 -6 48 -12 82 -15 119 -9 170 -19 175 -33 3 -10 -3 -12 -24
-7 -16 4 -62 7 -102 8 -44 1 -76 6 -83 14 -6 7 -24 16 -40 19 -16 4 -31 11
-34 16 -8 12 2 11 26 -2z m7318 -2391 c1 -5 -3 -8 -9 -8 -5 0 -10 12 -9 28 0
24 1 25 9 7 5 -11 9 -23 9 -27z m61 -198 c0 -5 -5 -10 -11 -10 -5 0 -7 5 -4
10 3 6 8 10 11 10 2 0 4 -4 4 -10z m-89 -102 c-13 -20 -12 -21 33 -16 26 3 49
1 52 -4 3 -5 11 -7 18 -5 9 4 10 -7 6 -37 -4 -31 -10 -41 -23 -40 -23 2 -21
-13 3 -26 15 -8 19 -17 15 -31 -5 -15 -3 -17 11 -12 12 4 15 3 10 -5 -11 -19
5 -14 21 6 8 9 11 11 7 3 -5 -11 -3 -13 10 -8 11 4 28 -1 43 -13 14 -11 29
-17 34 -14 5 3 14 -8 20 -25 6 -17 15 -31 20 -31 5 0 7 -13 5 -29 -2 -20 2
-32 12 -36 8 -3 12 -8 9 -11 -3 -3 1 -21 9 -40 8 -19 12 -39 9 -44 -3 -5 -1
-11 4 -14 8 -5 27 -120 23 -138 -1 -5 2 -8 6 -8 5 0 14 -45 21 -100 7 -55 17
-113 22 -129 15 -43 -13 -189 -76 -399 -70 -232 -190 -571 -209 -590 -8 -8
-27 -15 -43 -14 -71 2 -184 16 -189 23 -3 5 40 9 95 9 88 0 101 2 101 17 0 37
-39 233 -77 390 -20 82 -29 89 -93 68 -72 -24 -78 -41 -57 -168 18 -106 30
-217 22 -217 -2 0 -27 71 -55 158 -28 86 -53 163 -56 171 -2 8 -7 12 -9 9 -3
-2 13 -58 35 -123 46 -137 49 -156 21 -131 -10 9 -36 65 -56 124 -21 59 -39
108 -41 110 -1 2 -12 -2 -24 -8 -13 -7 -18 -15 -13 -19 26 -18 91 -246 79
-278 -8 -20 11 -16 35 8 17 17 23 19 30 8 15 -23 10 -59 -8 -66 -10 -4 -26
-16 -36 -28 -10 -11 -16 -14 -12 -8 4 9 1 11 -9 7 -9 -3 -16 -12 -16 -19 0 -8
-8 -16 -19 -20 -10 -3 -31 -23 -46 -45 -15 -22 -32 -40 -37 -40 -5 0 -6 -4 -3
-10 3 -5 1 -10 -4 -10 -6 0 -11 -5 -11 -11 0 -5 6 -7 13 -3 9 6 9 5 0 -7 -7
-9 -15 -33 -19 -55 -3 -21 -15 -50 -27 -64 -129 -147 -312 -314 -451 -412
-114 -81 -140 -102 -81 -68 93 54 221 147 301 219 48 42 96 83 107 91 l21 15
-19 -34 c-52 -91 -315 -319 -455 -394 -501 -269 -1093 -364 -2440 -391 -228
-5 -232 -5 -141 8 52 8 142 17 200 20 601 33 721 41 721 48 0 5 -3 7 -8 4 -8
-5 -461 -24 -729 -30 -145 -3 -173 -1 -177 11 -4 9 -13 13 -22 9 -12 -5 -15
-2 -10 10 3 8 6 20 6 25 0 5 19 9 43 10 l42 1 -40 9 c-26 7 -54 6 -82 -1 -23
-5 -66 -10 -95 -9 l-53 1 95 24 c77 19 101 22 128 13 18 -6 38 -8 45 -6 6 3 4
6 -7 6 -30 1 -55 38 -129 194 l-70 148 -61 -5 c-38 -3 -2 7 99 27 170 35 231
52 241 68 6 10 -145 7 -241 -5 -37 -4 -29 -1 30 14 44 10 244 66 445 123 201
57 445 124 542 148 131 32 178 48 178 59 0 12 2 12 9 2 7 -11 16 -10 47 7 21
12 44 21 50 21 7 0 15 7 18 16 3 9 13 14 21 10 8 -3 17 -1 21 5 3 6 11 8 18 6
8 -3 10 20 8 83 -2 51 1 96 7 107 8 14 10 4 11 -47 0 -60 26 -184 30 -150 1 8
2 18 1 23 -1 4 10 5 24 1 15 -4 25 -2 25 5 0 6 8 11 18 11 9 1 33 9 52 20 19
10 44 23 56 29 11 5 34 26 50 46 16 20 38 46 49 58 11 11 28 32 37 46 18 26
18 26 18 4 0 -13 5 -23 11 -23 6 0 8 -8 4 -19 -7 -22 17 -23 53 -3 13 8 29 11
36 9 7 -3 19 3 27 14 7 10 19 19 27 19 15 0 86 33 122 58 14 9 40 26 58 37 17
11 32 23 32 28 0 4 7 7 15 7 7 0 18 7 23 16 5 9 13 16 18 16 5 0 18 7 29 15
14 11 16 16 7 20 -10 4 -10 8 -1 19 9 11 9 17 0 28 -10 12 1 21 61 50 125 60
139 58 90 -10 -16 -21 -31 -48 -35 -58 -9 -24 -1 -52 16 -54 6 0 29 -4 50 -8
32 -6 45 -2 88 25 28 17 56 31 62 31 7 0 21 6 32 14 20 13 74 31 88 28 4 -1 7
5 7 13 0 8 5 15 10 15 6 0 10 5 10 12 0 6 9 22 21 34 l21 23 -20 21 c-16 17
-33 23 -76 24 -30 1 -57 4 -61 7 -5 5 225 139 321 187 l41 21 6 -55 c7 -66 23
-94 79 -134 35 -26 50 -30 105 -30 45 0 81 7 123 25 33 14 63 25 67 25 14 0
-63 -52 -121 -81 -32 -17 -56 -32 -55 -34 3 -3 185 82 359 168 49 24 53 33 51
126 -1 51 10 81 30 81 5 0 9 -9 9 -21 0 -11 9 -32 20 -46 11 -14 20 -32 20
-40 0 -7 6 -24 14 -36 11 -18 78 -278 125 -487 l10 -45 -5 55 c-8 89 -99 472
-173 735 -54 186 -55 201 -43 357 7 79 19 195 27 258 8 63 17 141 21 173 3 31
12 63 20 71 8 8 14 34 14 58 0 60 10 92 24 78 7 -7 7 -16 -3 -32z m169 -18 c0
-5 -2 -10 -4 -10 -3 0 -8 5 -11 10 -3 6 -1 10 4 10 6 0 11 -4 11 -10z m-860
-295 c0 -8 -2 -15 -4 -15 -2 0 -6 7 -10 15 -3 8 -1 15 4 15 6 0 10 -7 10 -15z
m-83 -33 c-15 -16 -15 -19 3 -30 29 -18 48 -15 55 8 4 11 10 18 15 15 5 -3 7
-11 5 -18 -3 -7 -7 -84 -10 -172 -3 -88 -7 -212 -9 -275 l-4 -115 -33 -27
c-18 -15 -80 -48 -138 -74 -145 -63 -134 -60 -126 -35 3 12 6 46 6 76 0 30 9
79 20 110 10 30 19 70 19 89 0 51 48 266 65 292 8 13 15 30 15 38 0 7 7 27 15
42 10 20 15 23 15 12 0 -10 7 -18 16 -18 8 0 12 5 9 10 -3 6 -2 10 4 10 5 0
12 -6 15 -12 3 -7 5 -4 5 7 -2 36 1 45 21 65 25 25 39 27 17 2z m233 -103 c0
-6 -4 -7 -10 -4 -5 3 -10 11 -10 16 0 6 5 7 10 4 6 -3 10 -11 10 -16z m-10
-148 c-5 -10 -5 -23 1 -32 5 -7 9 -26 9 -40 0 -20 6 -28 25 -33 21 -5 24 -10
16 -25 -7 -12 -6 -22 2 -31 10 -10 9 -11 -3 -5 -12 7 -13 6 -3 -6 18 -22 10
-45 -28 -85 -30 -32 -31 -36 -11 -31 12 3 22 4 22 2 0 -4 -180 -137 -225 -166
-22 -14 -56 -34 -75 -43 l-35 -17 35 28 c19 15 46 39 60 52 l25 23 -25 -14
c-29 -17 -60 -29 -60 -24 0 2 36 34 79 72 44 37 78 71 75 76 -3 4 2 22 10 40
15 34 24 70 33 123 3 17 12 55 20 85 8 30 15 62 15 70 1 23 22 31 35 13 8 -10
9 -22 3 -32z m-1181 -162 c26 -9 31 -16 32 -42 1 -37 17 -85 18 -54 1 22 13
22 41 -3 17 -15 26 -17 36 -9 16 13 34 4 34 -17 0 -17 12 -18 28 -2 9 9 12 7
12 -8 0 -23 33 -58 44 -47 3 4 13 -3 21 -14 8 -12 29 -24 45 -28 17 -4 28 -10
26 -13 -2 -4 2 -13 10 -20 12 -11 14 -10 14 3 0 30 19 14 26 -22 10 -56 23
-77 38 -63 18 14 27 -18 19 -66 -5 -30 -15 -39 -82 -78 -118 -68 -317 -168
-416 -210 -49 -21 -126 -54 -170 -73 -77 -34 -222 -88 -370 -138 -65 -23 -313
-76 -415 -90 -25 -3 -52 -1 -60 4 -12 8 -12 13 4 30 10 11 23 18 27 15 8 -4
62 27 79 46 3 3 33 18 68 35 63 29 97 55 73 55 -16 0 -7 90 9 100 7 4 11 10
11 14 -1 3 -1 14 -1 24 0 13 2 14 9 4 9 -14 21 28 21 74 0 13 8 28 18 33 13 8
14 11 2 11 -11 0 -9 6 8 19 12 11 22 23 22 29 0 5 9 19 20 32 11 13 20 32 20
43 0 11 3 18 6 14 11 -11 46 67 45 101 -1 38 18 62 48 62 21 0 45 32 33 45 -4
4 8 4 27 0 21 -5 31 -4 27 3 -3 5 3 12 14 15 11 3 20 13 20 22 0 9 -4 13 -10
10 -15 -9 -12 4 5 21 16 17 40 10 29 -8 -4 -7 -2 -8 4 -4 7 4 12 14 12 23 0 9
6 13 15 9 9 -3 18 1 22 9 3 9 14 20 25 26 15 8 23 7 35 -8 13 -16 14 -16 9 0
-3 9 0 17 5 17 6 0 9 9 6 20 -3 11 -1 20 4 20 5 0 9 -8 10 -17 0 -15 2 -15 9
2 8 20 8 19 17 -2 11 -29 34 -15 36 21 2 30 13 34 21 8 9 -27 45 -46 62 -31
11 9 17 9 29 -1 12 -10 22 -8 13 3 -5 5 27 35 33 31 4 -2 12 3 19 11 15 18 10
17 49 4z m1551 -103 c0 -3 -4 -8 -10 -11 -5 -3 -10 -1 -10 4 0 6 5 11 10 11 6
0 10 -2 10 -4z m655 -293 c15 -98 35 -214 46 -258 18 -77 26 -120 50 -285 13
-87 18 -535 7 -695 -16 -239 -19 -273 -29 -325 -16 -88 -18 -98 -38 -250 -10
-80 -21 -159 -24 -177 -21 -120 -25 -154 -26 -197 -1 -27 -6 -55 -12 -63 -6
-7 -9 -26 -6 -43 4 -16 2 -32 -2 -35 -5 -3 -8 -17 -6 -31 1 -15 -4 -54 -12
-88 -8 -34 -17 -90 -20 -126 -3 -36 -9 -68 -14 -71 -5 -3 -9 -16 -9 -30 1 -13
-4 -46 -9 -74 -6 -27 -22 -120 -35 -205 -14 -85 -31 -189 -37 -230 -7 -41 -13
-79 -14 -85 -1 -5 -5 -18 -9 -27 -4 -10 -6 -23 -3 -30 2 -7 0 -23 -4 -36 -5
-13 -11 -49 -14 -80 -3 -31 -10 -70 -15 -87 -5 -16 -11 -43 -13 -60 -14 -92
-50 -215 -63 -215 -8 0 -14 1 -14 3 0 1 7 36 16 77 31 152 34 176 29 215 -3
22 -13 54 -21 70 -33 62 -20 164 76 610 30 141 73 415 67 422 -2 2 -25 -52
-51 -119 -27 -68 -79 -184 -117 -259 l-68 -137 -16 -148 c-20 -192 -44 -361
-56 -388 -8 -17 -9 -15 -5 11 3 17 10 92 16 165 6 73 15 157 20 187 6 30 10
64 10 75 0 20 -2 20 -20 -4 l-20 -25 19 45 c10 25 39 89 64 142 25 53 53 121
62 150 23 72 27 247 10 410 -7 73 -16 246 -19 383 -4 138 -9 275 -12 305 -3
30 -6 93 -8 140 -1 47 -5 90 -8 95 -3 6 -9 30 -13 55 -4 25 -9 53 -10 62 -2 9
-7 48 -10 85 -4 37 -10 82 -14 98 -11 44 -3 190 15 265 9 36 44 144 79 240 60
167 145 425 201 613 24 78 56 136 75 137 4 0 19 -80 34 -177z m-1354 27 c-22
-19 -41 -26 -41 -15 0 5 51 34 60 34 3 0 -6 -9 -19 -19z m289 -10 c11 -11 20
-24 20 -30 0 -18 63 -81 102 -101 21 -11 59 -22 85 -26 75 -9 86 -22 23 -24
-82 -3 -83 -3 -87 -16 -3 -9 -10 -10 -23 -3 -13 7 -23 6 -32 -3 -19 -17 -31
-17 -46 -1 -11 12 -9 14 10 14 21 1 20 2 -7 14 -16 7 -33 11 -37 9 -5 -2 -8 1
-8 7 0 7 9 9 23 5 21 -6 21 -6 -3 11 -14 10 -28 23 -32 28 -5 7 -8 6 -8 -2 0
-7 -5 -10 -10 -7 -6 4 -8 10 -5 15 3 5 1 11 -5 15 -5 3 -7 25 -3 51 5 40 4 44
-13 38 -18 -5 -18 -5 0 10 25 21 32 20 56 -4z m-10178 -24 c40 -18 127 -59
193 -90 65 -31 125 -54 133 -51 7 2 11 1 8 -4 -7 -11 20 -22 37 -15 7 2 21 -4
31 -15 10 -11 22 -18 26 -16 5 3 39 -10 77 -29 172 -88 800 -324 967 -365 40
-10 51 -10 59 1 6 9 7 8 3 -4 -3 -10 -1 -18 3 -18 5 0 17 -3 27 -7 13 -5 15
-3 9 7 -6 10 -2 11 21 5 16 -4 36 -8 44 -8 8 0 20 -3 25 -7 15 -11 97 -27 170
-33 11 -1 26 -6 33 -10 6 -5 17 -5 23 -1 6 3 14 2 18 -4 4 -6 26 -13 49 -14
23 -2 42 -6 42 -10 0 -5 9 -8 19 -8 20 0 185 -41 261 -65 194 -62 386 -120
445 -135 39 -10 65 -18 59 -19 -16 -2 -294 47 -331 58 -18 5 -33 6 -33 2 0 -8
40 -22 119 -42 41 -10 117 -60 149 -98 6 -8 12 -11 12 -7 0 5 6 3 14 -3 7 -6
22 -8 32 -4 16 6 17 4 7 -8 -10 -12 -9 -15 5 -16 14 -2 33 -5 75 -12 4 0 7 -7
7 -14 0 -7 10 -17 22 -22 13 -6 29 -22 36 -37 7 -16 17 -28 22 -28 5 0 7 -7 4
-15 -4 -9 0 -15 10 -15 9 0 15 -3 14 -7 -2 -5 2 -10 7 -12 25 -12 33 -26 16
-32 -18 -7 134 -44 346 -85 78 -15 140 -30 138 -34 -4 -7 -93 -5 -179 4 -22 3
-35 1 -30 -4 11 -11 67 -19 154 -24 112 -5 107 -4 88 -22 -14 -14 -30 -15
-149 -4 -74 6 -141 13 -149 16 -11 3 -35 -35 -87 -139 -89 -178 -111 -207
-163 -207 -21 0 -42 -4 -45 -10 -9 -15 66 -12 114 5 36 12 46 12 82 0 23 -8
53 -15 68 -15 14 0 33 -5 41 -10 21 -13 -33 -13 -97 0 -35 7 -76 6 -148 -4
-55 -8 -91 -14 -80 -15 46 -2 -8 -21 -104 -35 -95 -14 -322 -15 -549 -2 -23 1
-39 -1 -35 -5 5 -3 195 -14 423 -24 228 -9 431 -21 450 -25 l35 -8 -40 -2
c-132 -7 -951 12 -1100 25 -33 3 -144 10 -247 15 -180 9 -364 35 -646 91 -154
31 -442 128 -594 201 -234 113 -498 304 -567 413 -14 22 -62 73 -106 114 -44
41 -82 77 -85 79 -3 3 2 1 10 -3 8 -5 58 -47 110 -95 52 -47 122 -106 155
-130 33 -24 80 -61 105 -82 25 -21 110 -79 190 -128 161 -100 353 -186 545
-244 66 -20 128 -41 137 -46 9 -5 93 -23 185 -40 92 -17 213 -39 268 -50 55
-10 159 -24 230 -29 243 -20 516 -34 522 -27 3 3 -11 6 -33 7 -21 1 -55 3 -74
5 -19 3 -47 5 -62 6 -16 1 -28 4 -28 8 0 3 -19 4 -42 3 -24 -1 -60 4 -82 13
-21 8 -46 12 -56 9 -9 -3 -29 1 -44 9 -15 8 -39 13 -52 11 -13 -1 -24 1 -24 5
0 7 -24 11 -77 12 -13 0 -23 5 -23 10 0 6 -7 7 -16 4 -10 -4 -13 -2 -8 6 5 8
2 9 -9 5 -10 -3 -17 -3 -17 2 0 4 -6 8 -12 8 -56 3 -85 9 -96 20 -11 11 -3 13
45 14 l58 1 -75 13 c-338 57 -711 168 -943 278 -76 36 -135 62 -132 57 13 -21
298 -159 382 -185 51 -16 94 -34 97 -41 5 -12 -7 -12 -35 0 -9 4 -20 6 -25 5
-5 -1 -12 0 -16 1 -17 5 -29 8 -49 9 -11 0 -18 4 -16 9 3 4 -7 8 -21 9 -31 2
-77 10 -77 14 0 1 -13 3 -30 4 -39 3 -59 8 -66 18 -3 4 -23 10 -45 14 -21 3
-45 11 -53 16 -7 6 -18 12 -25 13 -20 3 -216 125 -279 175 -179 139 -411 355
-401 371 3 5 0 7 -7 6 -6 -2 -12 7 -14 19 -1 13 -9 31 -18 41 -9 10 -17 30
-17 45 0 14 -12 47 -26 72 -21 39 -23 49 -12 63 9 10 9 13 1 9 -24 -15 -46 39
-41 101 l5 57 -40 -83 c-22 -45 -42 -81 -44 -78 -2 2 7 41 22 86 43 139 21
104 -55 -83 -14 -36 -11 -4 5 49 22 72 20 73 -36 19 -29 -28 -48 -43 -43 -35
9 16 57 72 86 99 11 10 25 55 36 112 17 92 17 95 -1 127 -20 34 -47 43 -47 16
0 -14 -3 -14 -15 -4 -14 11 -14 15 0 36 14 22 12 28 -7 25 -5 0 -8 4 -8 10 0
8 16 9 53 4 111 -15 165 -15 177 0 7 8 19 15 26 15 8 0 14 5 14 10 0 6 7 10
15 10 8 0 15 7 15 16 0 8 5 12 11 9 5 -4 18 0 27 8 21 17 53 31 67 28 5 -1 15
5 21 14 6 9 18 14 25 13 8 -2 13 5 13 15 -1 9 2 17 7 17 5 0 6 7 3 15 -5 11
-2 13 12 8 12 -4 15 -3 10 5 -10 17 -5 16 76 -22z m493 -114 c-3 -3 -11 0 -18
7 -9 10 -8 11 6 5 10 -3 15 -9 12 -12z m125 -57 c17 -9 30 -18 30 -21 0 -4
-59 23 -69 32 -10 9 13 3 39 -11z m110 -55 c19 -11 31 -19 25 -19 -5 0 -26 8
-45 19 -19 11 -30 19 -25 19 6 0 26 -8 45 -19z m8790 6 c0 -4 -104 -68 -147
-90 -31 -16 -165 -67 -208 -80 -11 -3 61 34 160 83 170 85 195 96 195 87z
m-8675 -66 c3 -6 -1 -7 -9 -4 -18 7 -21 14 -7 14 6 0 13 -4 16 -10z m8255
-135 c-14 -8 -29 -14 -35 -14 -5 0 1 6 15 14 14 8 30 14 35 14 6 0 -1 -6 -15
-14z m-60 -24 c-33 -20 -567 -196 -745 -246 -162 -46 -488 -127 -605 -150 -80
-16 -11 6 210 69 129 37 255 73 280 80 25 7 72 20 105 29 186 48 323 88 520
153 210 69 271 85 235 65z m1758 -13 c-2 -6 -10 -14 -16 -16 -7 -2 -10 2 -6
12 7 18 28 22 22 4z m7 -266 c-9 -29 -20 -52 -25 -52 -14 0 -13 5 11 61 27 63
34 58 14 -9z m-11366 17 c-19 -11 -24 -3 -8 14 8 9 16 11 18 5 2 -6 -3 -14
-10 -19z m9215 -47 c-5 -4 -31 -22 -57 -40 -26 -18 -47 -30 -47 -26 0 3 -7 1
-15 -6 -13 -10 -15 -9 -15 8 0 16 4 20 17 15 11 -4 14 -3 9 5 -5 8 -1 10 10 5
13 -5 15 -3 9 7 -5 7 -4 11 1 7 5 -3 27 5 49 18 21 14 41 22 44 19 3 -3 1 -8
-5 -12z m-9169 -82 c10 -11 16 -20 13 -20 -3 0 -13 9 -23 20 -10 11 -16 20
-13 20 3 0 13 -9 23 -20z m11265 -5 c-7 -9 -15 -13 -17 -11 -7 7 7 26 19 26 6
0 6 -6 -2 -15z m-424 -239 c-68 -75 -79 -92 -95 -153 -10 -37 -21 -75 -25 -84
-5 -12 -1 -18 14 -22 18 -5 20 -9 11 -26 -6 -11 -7 -22 -3 -25 4 -2 36 32 70
77 34 45 78 100 98 122 34 38 35 38 12 5 -103 -147 -107 -153 -97 -173 9 -17
8 -18 -12 -12 -17 6 -21 4 -16 -8 3 -9 1 -17 -4 -19 -6 -2 -11 -11 -12 -20 -2
-9 -18 -34 -37 -55 -41 -45 -158 -138 -165 -131 -3 3 6 25 20 49 22 40 62 140
51 128 -10 -10 -73 -97 -89 -121 -10 -16 -22 -28 -28 -28 -12 0 -130 -112
-125 -118 5 -4 82 35 121 61 21 15 26 16 17 5 -28 -35 -202 -129 -339 -182
-314 -123 -666 -188 -1338 -246 -310 -26 -980 -54 -1138 -47 -111 6 -133 9
-170 31 -63 37 -102 83 -143 166 -100 205 -124 286 -106 355 l9 30 19 -45 c11
-25 42 -95 69 -156 41 -94 54 -114 84 -131 56 -32 92 -34 362 -23 339 13 674
29 729 35 78 7 285 15 275 11 -10 -5 -496 -37 -840 -56 -239 -13 -476 -13
-509 0 -16 6 -26 6 -26 0 0 -14 35 -30 66 -30 15 0 24 -3 21 -7 -4 -3 -20 -6
-37 -5 -25 1 -30 -3 -30 -21 1 -12 7 -33 15 -47 14 -25 14 -24 8 11 -5 34 -4
36 23 37 16 1 198 6 404 12 477 13 820 34 1075 66 212 26 241 31 185 34 l-35
2 30 8 c17 4 46 8 65 8 l35 0 -30 -8 c-40 -10 -10 -12 51 -3 l49 7 -35 8 c-25
5 -17 6 25 3 33 -2 52 -1 42 3 -13 5 5 12 57 21 42 7 81 9 87 5 7 -4 9 -3 6 3
-4 7 27 17 81 28 48 10 106 24 130 31 23 8 51 14 62 14 10 0 21 4 24 9 3 5 18
12 32 15 44 11 194 87 194 98 0 5 8 7 17 4 10 -4 14 -4 10 0 -4 4 46 35 110
69 208 107 276 157 527 383 87 79 161 141 164 138 2 -3 -30 -44 -72 -90z
m-10367 -178 c36 -32 103 -83 149 -114 45 -32 82 -60 82 -64 0 -3 -6 -14 -12
-23 -22 -27 -85 11 -159 95 -34 40 -79 89 -99 108 -19 19 -62 64 -95 100 l-60
64 64 -54 c35 -30 94 -81 130 -112z m10617 85 c-25 -47 -246 -288 -333 -364
-46 -39 -83 -75 -83 -81 0 -12 -63 -110 -107 -165 -41 -51 -60 -95 -128 -297
-180 -535 -199 -586 -217 -586 -5 0 -6 -5 -3 -10 4 -6 0 -22 -9 -35 -9 -13
-16 -32 -16 -40 0 -9 -6 -15 -12 -12 -16 5 -15 26 7 102 23 79 55 243 55 278
0 17 -7 30 -17 35 -10 4 -19 15 -20 25 -1 15 4 17 24 12 16 -4 22 -2 18 5 -3
5 -1 10 5 10 6 0 8 5 5 10 -4 6 -10 8 -15 5 -17 -10 -17 36 -1 99 9 36 20 69
24 72 4 4 7 17 7 28 0 12 7 30 15 40 8 11 15 29 15 41 0 11 12 38 26 58 28 42
26 63 -3 30 -28 -32 -117 -98 -151 -112 -17 -7 -37 -26 -44 -41 -8 -16 -26
-38 -40 -49 l-26 -21 2 43 c1 44 31 93 108 181 21 24 34 46 30 50 -4 4 -2 6 3
4 20 -6 96 35 91 49 -3 7 -1 13 3 13 5 0 11 -4 13 -10 2 -5 18 -1 36 10 18 11
30 25 27 30 -3 6 1 7 10 4 11 -4 14 -2 10 9 -4 8 1 17 10 21 10 4 14 2 9 -5
-4 -7 -1 -10 7 -7 8 3 13 10 12 15 -1 5 8 15 20 23 21 12 21 12 7 -5 -13 -17
-13 -18 0 -10 161 92 495 393 608 547 31 42 40 43 18 1z m-3561 -113 c-16 -4
-39 -8 -50 -8 -16 0 -15 2 5 8 14 4 36 8 50 8 22 0 22 -1 -5 -8z m-102 -17
c-7 -2 -21 -2 -30 0 -10 3 -4 5 12 5 17 0 24 -2 18 -5z m-60 -10 c-7 -2 -21
-2 -30 0 -10 3 -4 5 12 5 17 0 24 -2 18 -5z m-70 -10 c-7 -2 -19 -2 -25 0 -7
3 -2 5 12 5 14 0 19 -2 13 -5z m-3293 -27 c0 -3 -4 -8 -10 -11 -5 -3 -10 -1
-10 4 0 6 5 11 10 11 6 0 10 -2 10 -4z m3423 -23 c-7 -2 -21 -2 -30 0 -10 3
-4 5 12 5 17 0 24 -2 18 -5z m-6590 -189 c18 -9 81 -46 141 -81 86 -51 144
-76 278 -120 265 -86 420 -111 1093 -178 275 -27 337 -29 855 -27 470 1 518 3
547 19 19 10 33 25 33 36 0 16 -3 16 -22 5 -34 -19 -794 -15 -1153 6 -514 30
-647 44 -873 87 -117 23 -211 44 -208 46 2 3 112 -13 243 -36 168 -28 294 -43
428 -51 105 -6 251 -15 325 -20 74 -5 221 -12 325 -16 732 -24 849 -25 885 -6
69 36 82 45 90 65 4 12 26 60 48 107 22 47 48 103 57 125 20 46 31 33 16 -20
-5 -20 -7 -43 -5 -50 6 -14 -135 -326 -160 -354 -7 -9 -16 -24 -19 -33 -4 -10
-12 -18 -19 -18 -6 0 -23 -10 -36 -22 l-24 -23 -456 1 c-426 2 -570 7 -1115
44 -75 5 -141 11 -145 14 -4 2 -85 14 -181 26 -191 23 -308 43 -389 66 -50 14
-217 121 -287 184 -16 14 -73 52 -125 82 -52 31 -117 79 -145 107 -53 54 -53
61 -2 35z m6835 -80 c-4 -3 -12 5 -18 18 -12 22 -12 22 6 6 10 -10 15 -20 12
-24z m-3712 -22 c-11 -10 -15 4 -8 28 l7 25 3 -23 c2 -13 1 -26 -2 -30z
m-2589 -58 c-3 -3 -12 -4 -19 -1 -8 3 -5 6 6 6 11 1 17 -2 13 -5z m88 -24 c44
-15 50 -20 25 -16 -35 4 -115 34 -95 35 6 0 37 -8 70 -19z m7838 -37 c-7 -2
-19 -2 -25 0 -7 3 -2 5 12 5 14 0 19 -2 13 -5z m-70 -10 c-7 -2 -21 -2 -30 0
-10 3 -4 5 12 5 17 0 24 -2 18 -5z m-70 -10 c-7 -2 -19 -2 -25 0 -7 3 -2 5 12
5 14 0 19 -2 13 -5z m-1598 -15 c14 -6 25 -15 25 -20 0 -15 -27 -8 -45 12 -21
23 -16 25 20 8z m1513 5 c-10 -2 -26 -2 -35 0 -10 3 -2 5 17 5 19 0 27 -2 18
-5z m-125 -10 c-13 -2 -35 -2 -50 0 -16 2 -5 4 22 4 28 0 40 -2 28 -4z m-5228
-33 c-10 -11 -26 -20 -37 -20 -29 0 -21 15 15 27 17 5 34 11 36 12 2 0 -4 -8
-14 -19z m5440 15 c-22 -8 -397 -46 -403 -41 -3 3 1 6 9 7 8 0 82 9 164 19
137 16 255 24 230 15z m-8044 -42 c13 -16 12 -17 -3 -4 -17 13 -22 21 -14 21
2 0 10 -8 17 -17z m752 10 c-7 -2 -21 -2 -30 0 -10 3 -4 5 12 5 17 0 24 -2 18
-5z m142 -13 c3 -5 1 -10 -4 -10 -6 0 -11 5 -11 10 0 6 2 10 4 10 3 0 8 -4 11
-10z m1866 -13 c-10 -9 -11 -8 -5 6 3 10 9 15 12 12 3 -3 0 -11 -7 -18z m6275
10 c-11 -7 -36 -26 -55 -43 -20 -18 -50 -40 -67 -50 -72 -44 -110 -73 -129
-97 -10 -15 -32 -32 -47 -38 -15 -6 -28 -16 -28 -21 0 -5 -4 -6 -10 -3 -5 3
-10 -1 -10 -9 0 -19 -4 -20 -30 -4 -16 10 -22 9 -40 -11 -11 -13 -20 -29 -20
-34 0 -6 -7 -2 -15 9 -14 18 -14 18 -15 -9 0 -24 -2 -26 -19 -18 -14 8 -22 7
-32 -5 -7 -8 -18 -13 -26 -10 -8 3 -16 -1 -20 -10 -3 -8 -12 -13 -20 -9 -11 3
-13 1 -9 -10 3 -10 -3 -17 -19 -21 -14 -3 -30 -19 -37 -35 -11 -24 -17 -29
-36 -24 -13 3 -21 2 -18 -3 7 -12 -47 -2 -55 10 -7 12 -41 -1 -33 -13 3 -5 0
-8 -8 -7 -7 2 -12 -3 -10 -10 1 -8 -2 -11 -9 -6 -7 4 -18 -1 -25 -11 -13 -18
-15 -17 -44 10 -27 26 -86 47 -60 21 16 -16 12 -30 -5 -16 -13 11 -14 10 -9
-4 7 -18 -6 -22 -22 -6 -11 11 -54 2 -54 -11 0 -5 -11 -9 -25 -9 -19 0 -23 -4
-18 -17 4 -11 8 -13 11 -5 2 7 8 10 13 6 14 -9 0 -24 -23 -24 -11 0 -22 8 -25
20 -6 23 -23 27 -23 6 0 -18 -50 -79 -58 -71 -4 3 0 10 7 14 17 11 5 32 -14
24 -19 -7 -19 2 1 21 8 9 11 16 5 16 -5 0 -16 -7 -24 -14 -13 -13 -17 -13 -33
0 -17 12 -17 13 -1 8 9 -3 17 -1 17 4 0 18 -17 23 -29 8 -24 -28 -60 -28 -86
0 -16 18 -25 22 -26 13 -1 -8 -2 -21 -3 -29 -1 -8 5 -23 13 -32 8 -10 10 -18
4 -18 -10 0 -34 24 -48 50 -8 13 -7 13 10 0 16 -13 18 -13 13 0 -6 18 -58 27
-58 9 0 -8 -4 -8 -15 1 -11 9 -15 9 -15 1 0 -7 -5 -9 -11 -5 -6 3 -9 15 -6 25
3 11 1 17 -4 13 -5 -3 -9 0 -9 5 0 6 -11 11 -25 11 -14 0 -25 -4 -25 -10 0 -5
-5 -10 -12 -10 -9 0 -9 3 0 12 17 17 15 28 -4 28 -8 0 -13 -4 -10 -8 2 -4 -3
-8 -12 -8 -9 -1 -25 -5 -35 -9 -15 -6 -16 -4 -8 18 5 14 7 28 4 31 -3 3 -30 3
-59 0 -51 -6 -53 -6 -47 16 5 20 4 21 -15 9 -11 -7 -19 -16 -16 -20 2 -4 -5
-5 -16 -2 -23 6 -25 14 -8 31 7 7 8 12 2 12 -5 0 -2 5 6 10 12 7 12 12 3 21
-10 10 -17 7 -32 -12 -11 -13 -20 -28 -21 -32 0 -5 -5 -5 -10 -2 -6 4 -4 12 6
22 11 11 12 19 5 26 -6 6 -11 19 -11 29 0 10 -4 18 -10 18 -5 0 -10 -5 -10
-11 0 -8 -5 -7 -16 2 -15 12 -13 14 10 20 15 4 95 13 179 19 84 7 154 13 157
15 3 2 48 6 100 10 52 4 97 8 100 10 3 2 37 6 75 9 172 16 580 68 670 85 28 5
91 17 140 25 50 9 115 25 145 35 30 10 83 24 117 31 35 7 61 16 58 20 -2 3 6
6 17 5 12 -1 42 6 67 16 53 21 64 23 37 6z m-7993 -14 c-7 -2 -19 -2 -25 0 -7
3 -2 5 12 5 14 0 19 -2 13 -5z m131 -11 c2 -4 -13 -6 -35 -4 -21 2 -39 6 -39
8 0 7 69 4 74 -4z m96 -11 c0 -4 -11 -6 -25 -3 -14 2 -25 6 -25 8 0 2 11 4 25
4 14 0 25 -4 25 -9z m57 -7 c-3 -3 -12 -4 -19 -1 -8 3 -5 6 6 6 11 1 17 -2 13
-5z m5806 -264 c-3 -11 -9 -20 -14 -20 -10 0 -12 24 -2 33 13 13 21 7 16 -13z
m642 -270 c3 -6 -1 -7 -9 -4 -18 7 -21 14 -7 14 6 0 13 -4 16 -10z m2149
-1057 c-136 -258 -290 -529 -501 -886 -310 -522 -563 -966 -643 -1125 -37 -73
-70 -135 -74 -139 -10 -10 9 37 35 89 l21 43 -23 -21 c-30 -27 -76 -43 -63
-23 23 39 105 154 166 233 38 49 66 92 62 95 -3 3 -10 -3 -16 -14 -14 -24 -78
-83 -98 -90 -8 -3 -68 -72 -132 -153 -64 -81 -147 -185 -184 -232 -67 -84
-330 -428 -493 -644 -46 -61 -111 -145 -145 -186 -34 -41 -79 -100 -100 -130
-79 -116 -20 0 76 150 90 139 125 185 221 294 79 89 657 886 643 886 -6 0
-102 -116 -267 -322 -61 -76 -113 -138 -115 -138 -7 0 86 136 221 325 67 94
128 181 135 195 11 22 8 21 -26 -10 -21 -19 -40 -38 -42 -42 -2 -5 -10 -8 -17
-8 -7 0 -16 -6 -18 -12 -4 -10 -6 -10 -6 -1 -1 7 27 49 62 95 35 46 101 133
147 193 113 149 188 309 240 513 6 23 15 42 21 42 5 0 34 18 64 40 30 22 59
40 65 40 19 0 10 -64 -20 -139 -16 -41 -28 -76 -27 -78 2 -1 23 23 47 54 25
31 66 81 92 110 25 30 70 89 99 131 29 42 128 185 219 317 92 132 225 333 295
448 71 114 130 207 132 207 2 0 -22 -48 -53 -107z m401 -303 c3 -6 -1 -7 -9
-4 -18 7 -21 14 -7 14 6 0 13 -4 16 -10z m-5 -60 c0 -5 -5 -10 -11 -10 -5 0
-7 5 -4 10 3 6 8 10 11 10 2 0 4 -4 4 -10z m-1205 -387 c-4 -10 -27 -69 -51
-132 -24 -63 -46 -117 -49 -119 -2 -3 -2 18 2 46 5 43 3 53 -11 58 -24 9 -52
-6 -111 -57 -61 -54 -40 -22 54 81 58 64 150 140 169 140 2 0 1 -8 -3 -17z
m55 7 c0 -5 -2 -10 -4 -10 -3 0 -8 5 -11 10 -3 6 -1 10 4 10 6 0 11 -4 11 -10z
m-405 -500 c18 -35 19 -40 2 -40 -7 0 -17 10 -22 23 -7 15 -18 21 -35 20 -24
-3 -24 -2 -6 12 29 22 44 18 61 -15z m447 -856 c-12 -8 -40 -46 -62 -84 -42
-72 -56 -88 -40 -46 4 13 13 41 19 63 12 42 41 83 60 83 6 0 10 3 10 8 -3 19
2 22 17 7 15 -15 15 -17 -4 -31z m-108 -81 c-19 -45 -54 -104 -70 -118 -6 -5
-16 -19 -22 -30 -8 -14 -11 -15 -12 -5 0 8 14 39 30 69 17 30 30 58 30 62 0
10 43 59 52 59 4 0 0 -17 -8 -37z m-193 -310 c-12 -20 -14 -14 -5 12 4 9 9 14
11 11 3 -2 0 -13 -6 -23z m-20 -50 c-12 -20 -14 -14 -5 12 4 9 9 14 11 11 3
-2 0 -13 -6 -23z m-47 -124 c-67 -171 -186 -450 -191 -445 -3 2 0 13 5 23 6
10 54 126 107 258 53 132 99 246 102 253 3 7 7 11 9 9 3 -2 -12 -46 -32 -98z
m-324 -245 l25 -15 -25 7 c-14 3 -32 10 -40 15 -13 7 -13 8 0 8 8 0 26 -6 40
-15z m27 -476 c-3 -8 -6 -5 -6 6 -1 11 2 17 5 13 3 -3 4 -12 1 -19z m-317
-340 c0 -9 -49 -140 -54 -145 -11 -12 -6 16 15 82 12 36 26 65 30 65 5 0 9 -1
9 -2z m77 -445 c-171 -298 -197 -341 -197 -330 0 22 184 337 197 337 2 0 2 -3
0 -7z m-517 -877 c0 -2 -8 -10 -17 -17 -16 -13 -17 -12 -4 4 13 16 21 21 21
13z m-525 -266 c77 -56 151 -107 165 -112 14 -6 20 -12 13 -15 -26 -9 -266
162 -338 240 -12 13 -20 19 160 -113z m-75 -31 c27 -15 -11 -10 -45 6 l-30 14
30 -6 c17 -3 37 -9 45 -14z m101 -40 c23 -11 39 -23 36 -25 -3 -3 -27 6 -54
20 -26 14 -42 25 -35 26 7 0 31 -9 53 -21z"/>
<path d="M20630 18702 c0 -5 -8 -12 -18 -15 -19 -4 -38 -47 -21 -47 5 0 9 6 9
14 0 17 27 29 36 15 3 -5 3 -16 0 -24 -3 -8 -1 -15 4 -15 6 0 10 11 10 25 0
14 -6 25 -12 25 -10 0 -9 3 1 9 9 6 10 11 2 15 -6 4 -11 3 -11 -2z"/>
<path d="M20138 16938 c9 -9 15 -9 24 0 9 9 7 12 -12 12 -19 0 -21 -3 -12 -12z"/>
<path d="M20155 16893 c-10 -15 -39 -50 -64 -78 -39 -43 -40 -45 -7 -15 46 43
100 109 94 116 -3 2 -13 -8 -23 -23z"/>
<path d="M19490 16190 c-52 -27 -92 -49 -87 -49 10 -1 187 88 187 94 0 7 5 9
-100 -45z"/>
<path d="M19340 16120 c-8 -5 -10 -10 -5 -10 6 0 17 5 25 10 8 5 11 10 5 10
-5 0 -17 -5 -25 -10z"/>
<path d="M19210 16074 c-155 -57 -295 -94 -485 -128 -106 -19 -396 -59 -508
-70 -72 -8 -112 -14 -87 -15 107 -3 554 59 786 110 121 26 450 140 399 138 -5
0 -53 -16 -105 -35z"/>
<path d="M18010 15860 l-55 -7 57 -1 c31 -1 60 3 63 8 3 6 3 9 -2 8 -4 -1 -33
-4 -63 -8z"/>
<path d="M18675 17961 c-3 -5 -2 -12 3 -15 5 -3 9 1 9 9 0 17 -3 19 -12 6z"/>
<path d="M9460 16978 c0 -7 13 -22 28 -32 15 -11 42 -31 60 -44 58 -44 34 -6
-28 42 -33 26 -60 41 -60 34z"/>
<path d="M9616 16831 c-3 -4 7 -19 22 -32 15 -13 21 -17 15 -9 -18 20 -16 30
5 23 15 -6 15 -5 3 10 -14 18 -37 22 -45 8z"/>
<path d="M9680 16817 c0 -2 14 -16 32 -33 29 -26 22 -10 -9 23 -11 12 -23 17
-23 10z"/>
<path d="M12215 16770 c4 -6 11 -8 16 -5 14 9 11 15 -7 15 -8 0 -12 -5 -9 -10z"/>
<path d="M10227 16329 c7 -7 15 -10 18 -7 3 3 -2 9 -12 12 -14 6 -15 5 -6 -5z"/>
<path d="M10380 16255 c14 -8 30 -14 35 -14 6 0 -1 6 -15 14 -14 8 -29 14 -35
14 -5 0 1 -6 15 -14z"/>
<path d="M20012 16382 c-31 -36 -38 -52 -31 -64 6 -11 6 -19 -1 -23 -5 -3 -10
-11 -10 -17 0 -6 14 6 30 27 17 21 30 44 30 52 0 8 7 27 15 43 22 42 13 37
-33 -18z"/>
<path d="M19882 16241 c-28 -33 -52 -63 -52 -68 0 -4 -14 -22 -30 -40 -17 -18
-30 -40 -30 -49 0 -10 12 0 32 27 17 24 34 46 38 49 3 3 19 23 35 45 16 22 40
52 54 68 14 15 20 27 15 27 -5 0 -33 -27 -62 -59z"/>
<path d="M20036 16203 c-6 -14 -5 -15 5 -6 7 7 10 15 7 18 -3 3 -9 -2 -12 -12z"/>
<path d="M19640 15895 c-8 -9 -8 -15 -2 -15 12 0 26 19 19 26 -2 2 -10 -2 -17
-11z"/>
<path d="M18840 15360 c0 -5 5 -10 11 -10 5 0 7 5 4 10 -3 6 -8 10 -11 10 -2
0 -4 -4 -4 -10z"/>
<path d="M18770 15326 c0 -7 7 -19 15 -26 16 -13 20 -3 9 24 -8 20 -24 21 -24
2z"/>
<path d="M18740 15304 c0 -8 5 -12 10 -9 6 4 8 11 5 16 -9 14 -15 11 -15 -7z"/>
<path d="M18575 15280 c4 -6 11 -8 16 -5 14 9 11 15 -7 15 -8 0 -12 -5 -9 -10z"/>
<path d="M19542 12893 c-12 -21 -31 -53 -43 -70 -12 -19 -16 -33 -10 -33 11 0
91 115 91 132 0 19 -18 5 -38 -29z"/>
</g>
</svg>
